<svg width="20" height="22" viewBox="0 0 20 22" fill="none" xmlns="http://www.w3.org/2000/svg">
<path d="M19.1775 13.669L17.6898 12.1812C17.348 11.8133 17.15 11.3347 17.1319 10.8329V7.90385C17.1319 4.13794 14.6212 0.929932 10.1579 0.929932C5.69463 0.929932 3.18402 4.04495 3.18402 7.90385V11.1583C3.17541 11.4527 3.05968 11.7337 2.85857 11.9487L1.13833 13.669C0.963134 13.8406 0.862869 14.0746 0.859375 14.3199V17.6673C0.859375 17.914 0.957342 18.1505 1.13172 18.3249C1.30611 18.4992 1.54262 18.5972 1.78923 18.5972H6.94993C7.0793 19.3543 7.47229 20.0413 8.05939 20.5366C8.64648 21.0319 9.38983 21.3036 10.1579 21.3036C10.926 21.3036 11.6694 21.0319 12.2565 20.5366C12.8436 20.0413 13.2366 19.3543 13.3659 18.5972H18.5266C18.7733 18.5972 19.0098 18.4992 19.1842 18.3249C19.3585 18.1505 19.4565 17.914 19.4565 17.6673V14.3199C19.453 14.0746 19.3527 13.8406 19.1775 13.669Z" fill="white"/>
</svg>
